<svg width="22" height="23" viewBox="0 0 22 23" fill="none" xmlns="http://www.w3.org/2000/svg">
<path d="M20.1801 9.97314H1M14.8523 1V5.48657M6.3278 1V5.48657M6.11469 21.1896H15.0654C16.8557 21.1896 17.7509 21.1896 18.4347 20.8228C19.0362 20.5002 19.5252 19.9854 19.8317 19.3523C20.1801 18.6325 20.1801 17.6902 20.1801 15.8057V8.62717C20.1801 6.74264 20.1801 5.80037 19.8317 5.08057C19.5252 4.44742 19.0362 3.93265 18.4347 3.61004C17.7509 3.24329 16.8557 3.24329 15.0654 3.24329H6.11469C4.32438 3.24329 3.42923 3.24329 2.74542 3.61004C2.14392 3.93265 1.65489 4.44742 1.34842 5.08057C1 5.80037 1 6.74264 1 8.62717V15.8057C1 17.6902 1 18.6325 1.34842 19.3523C1.65489 19.9854 2.14392 20.5002 2.74542 20.8228C3.42923 21.1896 4.32438 21.1896 6.11469 21.1896Z" stroke="#767676" stroke-width="2" stroke-linecap="round" stroke-linejoin="round"/>
</svg>
