<svg width="26" height="26" viewBox="0 0 26 26" fill="none" xmlns="http://www.w3.org/2000/svg">
<path d="M13.0018 23.8344C18.9849 23.8344 23.8351 18.9841 23.8351 13.0011C23.8351 7.01797 18.9849 2.16772 13.0018 2.16772C7.01871 2.16772 2.16846 7.01797 2.16846 13.0011C2.16846 18.9841 7.01871 23.8344 13.0018 23.8344Z" stroke="#767676" stroke-width="1.58632" stroke-linecap="round" stroke-linejoin="round"/>
<path d="M10.2935 9.7135C10.2935 9.19644 10.2935 8.93791 10.4015 8.79358C10.4957 8.66781 10.6398 8.58911 10.7965 8.57792C10.9764 8.56507 11.1938 8.70488 11.6288 8.98448L16.7428 12.272C17.1202 12.5147 17.3089 12.636 17.3741 12.7902C17.431 12.925 17.431 13.0771 17.3741 13.2119C17.3089 13.3661 17.1202 13.4875 16.7428 13.7301L11.6288 17.0176C11.1938 17.2972 10.9764 17.437 10.7965 17.4242C10.6398 17.413 10.4957 17.3343 10.4015 17.2085C10.2935 17.0642 10.2935 16.8057 10.2935 16.2886V9.7135Z" stroke="#767676" stroke-width="1.58632" stroke-linecap="round" stroke-linejoin="round"/>
</svg>
